<svg version="1.1" id="Layer_1" xmlns="http://www.w3.org/2000/svg" xmlns:xlink="http://www.w3.org/1999/xlink" x="0px" y="0px"
	 width="100%" viewBox="0 0 599 599" enable-background="new 0 0 599 599" xml:space="preserve">
<path fill="#FEFEFF" opacity="1.000000" stroke="none" 
	d="
M0.999999,280.000000 
	C1.000000,187.073196 1.000000,94.146408 1.000000,1.000000 
	C93.020775,1.000000 185.041733,1.000000 277.346252,1.381087 
	C270.356995,2.600801 263.041321,3.170290 255.818085,4.320190 
	C192.071625,14.468270 136.712585,41.667988 90.721954,87.034920 
	C42.163342,134.934998 13.132637,192.869247 3.772101,260.538971 
	C2.874271,267.029633 1.925254,273.513153 0.999999,280.000000 
z"/>
<path fill="#FEFEFF" opacity="1.000000" stroke="none" 
	d="
M322.000000,1.000000 
	C414.593567,1.000000 507.187134,1.000000 600.000000,1.000000 
	C600.000000,93.020775 600.000000,185.041733 599.631836,277.321899 
	C596.653381,261.327667 595.218445,244.779617 591.231689,228.871048 
	C572.690247,154.883362 531.593689,96.183029 468.854126,52.904232 
	C430.242859,26.269556 387.425720,10.066988 340.883270,3.829786 
	C334.575714,2.984504 328.293793,1.947976 322.000000,1.000000 
z"/>
<path fill="#FEFEFF" opacity="1.000000" stroke="none" 
	d="
M276.000000,600.000000 
	C184.405991,600.000000 92.811981,600.000000 1.000000,600.000000 
	C1.000000,507.979218 1.000000,415.958282 1.372032,323.673340 
	C3.577482,336.259277 4.660267,349.269257 7.360408,361.934387 
	C34.417995,488.849091 137.588684,582.896606 266.044403,598.133179 
	C269.389709,598.529968 272.682648,599.367798 276.000000,600.000000 
z"/>
<path fill="#FEFEFF" opacity="1.000000" stroke="none" 
	d="
M600.000000,325.000000 
	C600.000000,416.593842 600.000000,508.187714 600.000000,600.000000 
	C508.312561,600.000000 416.624939,600.000000 324.663300,599.625366 
	C343.831726,595.722412 363.730286,593.794189 382.641937,588.403625 
	C497.867828,555.559692 580.597717,459.687103 597.350159,340.881989 
	C598.099243,335.569061 599.110718,330.293152 600.000000,325.000000 
z"/>
<path fill="#2C5CA6" opacity="1.000000" stroke="none" 
	d="
M600.000000,324.531342 
	C599.110718,330.293152 598.099243,335.569061 597.350159,340.881989 
	C580.597717,459.687103 497.867828,555.559692 382.641937,588.403625 
	C363.730286,593.794189 343.831726,595.722412 324.194641,599.625366 
	C308.312439,600.000000 292.624878,600.000000 276.468658,600.000000 
	C272.682648,599.367798 269.389709,598.529968 266.044403,598.133179 
	C137.588684,582.896606 34.417995,488.849091 7.360408,361.934387 
	C4.660267,349.269257 3.577482,336.259277 1.372032,323.204681 
	C1.000000,308.979095 1.000000,294.958221 0.999999,280.468658 
	C1.925254,273.513153 2.874271,267.029633 3.772101,260.538971 
	C13.132637,192.869247 42.163342,134.934998 90.721954,87.034920 
	C136.712585,41.667988 192.071625,14.468270 255.818085,4.320190 
	C263.041321,3.170290 270.356995,2.600801 277.814880,1.381087 
	C283.354919,1.000000 288.709869,1.000000 294.815277,1.291680 
	C299.043854,1.388907 302.521912,1.194454 306.000000,1.000000 
	C311.022095,1.000000 316.044189,1.000000 321.533142,1.000000 
	C328.293793,1.947976 334.575714,2.984504 340.883270,3.829786 
	C387.425720,10.066988 430.242859,26.269556 468.854126,52.904232 
	C531.593689,96.183029 572.690247,154.883362 591.231689,228.871048 
	C595.218445,244.779617 596.653381,261.327667 599.631836,277.790588 
	C600.000000,293.354218 600.000000,308.708466 600.000000,324.531342 
M152.273224,556.267090 
	C232.344162,601.157410 316.067505,608.929565 402.280151,577.940918 
	C534.380371,530.458191 614.238159,394.788116 592.727966,255.957687 
	C581.757324,185.151566 549.877441,124.807281 495.080414,78.589745 
	C404.833618,2.472701 302.506592,-15.872814 192.289642,26.069983 
	C61.542423,75.825531 -14.376249,211.550949 9.203685,349.268311 
	C24.693268,439.734406 73.307281,508.296631 152.273224,556.267090 
z"/>
<path fill="#446DAD" opacity="1.000000" stroke="none" 
	d="
M305.541931,1.000000 
	C302.521912,1.194454 299.043854,1.388907 295.282898,1.291680 
	C298.361298,1.000000 301.722565,1.000000 305.541931,1.000000 
z"/>
<path fill="#FDFDFE" opacity="1.000000" stroke="none" 
	d="
M151.948853,556.097839 
	C73.307281,508.296631 24.693268,439.734406 9.203685,349.268311 
	C-14.376249,211.550949 61.542423,75.825531 192.289642,26.069983 
	C302.506592,-15.872814 404.833618,2.472701 495.080414,78.589745 
	C549.877441,124.807281 581.757324,185.151566 592.727966,255.957687 
	C614.238159,394.788116 534.380371,530.458191 402.280151,577.940918 
	C316.067505,608.929565 232.344162,601.157410 151.948853,556.097839 
M74.277214,437.173157 
	C84.459427,453.674072 96.132484,469.010986 109.535255,483.055603 
	C191.764618,569.222656 322.269409,589.790344 426.940826,533.020203 
	C533.434692,475.261627 587.007324,353.032471 557.350891,235.481476 
	C528.032104,119.268600 422.020386,36.473217 302.241089,36.289680 
	C262.675720,36.229053 224.540939,43.664738 189.036255,61.202904 
	C102.271721,104.061798 51.103283,173.521225 38.334187,269.632965 
	C30.437967,329.067017 43.330639,384.891418 74.277214,437.173157 
z"/>
<path fill="#1B4E9B" opacity="1.000000" stroke="none" 
	d="
M74.105026,436.850891 
	C43.330639,384.891418 30.437967,329.067017 38.334187,269.632965 
	C51.103283,173.521225 102.271721,104.061798 189.036255,61.202904 
	C224.540939,43.664738 262.675720,36.229053 302.241089,36.289680 
	C422.020386,36.473217 528.032104,119.268600 557.350891,235.481476 
	C587.007324,353.032471 533.434692,475.261627 426.940826,533.020203 
	C322.269409,589.790344 191.764618,569.222656 109.535255,483.055603 
	C96.132484,469.010986 84.459427,453.674072 74.105026,436.850891 
M273.006195,333.966949 
	C273.006195,333.966949 273.024506,334.012787 273.717834,334.104156 
	C292.096649,318.171814 310.489288,302.255432 328.851013,286.303436 
	C356.523071,262.263031 384.186432,238.212555 411.828522,214.137665 
	C429.632660,198.631104 437.163544,179.190445 432.361572,155.964920 
	C423.083954,111.091980 370.034790,94.205307 334.693237,124.772873 
	C289.829834,163.576050 245.148773,202.590057 200.426193,241.555740 
	C199.385712,242.462296 198.786163,243.874908 198.042297,245.029587 
	C198.042297,245.029587 198.043137,244.963562 197.544662,244.378220 
	C196.722672,244.867294 195.900681,245.356369 195.135483,246.608047 
	C196.335861,247.525360 197.536240,248.442688 198.178665,249.832184 
	C196.843216,250.507690 195.489716,251.149933 194.175018,251.863632 
	C170.735886,264.587769 159.420349,292.571411 167.397491,318.063202 
	C175.321167,343.384125 200.271469,359.892059 226.617142,357.278748 
	C242.713043,355.682159 255.506348,348.046143 266.484924,336.217651 
	C266.984741,337.141022 267.484558,338.064392 267.707397,339.106079 
	C267.809326,339.076416 267.911285,339.046753 268.714966,339.009155 
	C269.807159,337.863861 270.899353,336.718567 272.588959,335.195831 
	C272.744904,334.788544 272.900848,334.381226 273.006195,333.966949 
M333.983063,444.996216 
	C333.983063,444.996216 333.979492,445.055084 334.679962,445.107971 
	C360.473541,422.722046 386.290100,400.362488 412.053711,377.942108 
	C434.549957,358.365112 457.380646,339.148315 479.329559,318.973816 
	C498.188873,301.639221 502.463867,273.817657 491.258575,250.942398 
	C473.889099,215.483078 428.943542,207.036469 398.126526,233.584717 
	C374.269409,254.137146 350.613129,274.922485 326.829590,295.560547 
	C304.314697,315.097687 281.750397,334.577850 258.597900,354.053497 
	C258.395294,355.984619 258.192719,357.915771 257.440460,360.275757 
	C256.297028,360.954712 255.137939,361.608704 254.012527,362.316315 
	C234.895004,374.335815 224.661041,396.888794 228.305115,418.951172 
	C232.001923,441.332825 248.557983,459.577606 270.414856,464.657928 
	C291.376709,469.530273 309.496277,463.713196 325.616211,449.080475 
	C326.426361,449.950806 327.236511,450.821136 328.640106,452.328979 
	C330.494690,450.129944 332.244141,448.055573 334.247650,445.507751 
	C334.178528,445.342560 334.109436,445.177338 333.983063,444.996216 
M120.025307,440.432373 
	C120.796593,441.518036 121.548302,442.618195 122.342087,443.687164 
	C137.989227,464.759033 166.698776,472.274323 190.335449,461.490997 
	C214.921997,450.274292 228.484497,424.105865 222.408936,398.133270 
	C217.025253,375.118347 202.457123,360.098724 179.344193,355.179169 
	C155.403625,350.083466 135.233246,357.992767 121.273712,378.148682 
	C107.574196,397.929169 107.639046,418.917419 120.025307,440.432373 
z"/>
<path fill="#FEFEFF" opacity="1.000000" stroke="none" 
	d="
M259.207825,354.083099 
	C281.750397,334.577850 304.314697,315.097687 326.829590,295.560547 
	C350.613129,274.922485 374.269409,254.137146 398.126526,233.584717 
	C428.943542,207.036469 473.889099,215.483078 491.258575,250.942398 
	C502.463867,273.817657 498.188873,301.639221 479.329559,318.973816 
	C457.380646,339.148315 434.549957,358.365112 412.053711,377.942108 
	C386.290100,400.362488 360.473541,422.722046 334.086609,444.765869 
	C333.813416,443.840240 334.115570,443.246002 334.456390,442.674805 
	C348.486328,419.159149 347.074371,392.718414 330.690887,372.228180 
	C314.677002,352.200165 289.100311,345.168701 263.045807,353.581604 
	C261.838409,353.971436 260.490387,353.925873 259.207825,354.083099 
z"/>
<path fill="#FEFEFF" opacity="1.000000" stroke="none" 
	d="
M197.980957,245.051453 
	C198.786163,243.874908 199.385712,242.462296 200.426193,241.555740 
	C245.148773,202.590057 289.829834,163.576050 334.693237,124.772873 
	C370.034790,94.205307 423.083954,111.091980 432.361572,155.964920 
	C437.163544,179.190445 429.632660,198.631104 411.828522,214.137665 
	C384.186432,238.212555 356.523071,262.263031 328.851013,286.303436 
	C310.489288,302.255432 292.096649,318.171814 273.012787,333.818573 
	C272.730255,332.635223 273.121674,331.721222 273.579865,330.842041 
	C284.961487,309.002441 284.554016,287.350830 270.526642,267.117218 
	C256.513245,246.903824 236.467514,238.647964 211.978439,241.922607 
	C207.257568,242.553879 202.644012,243.987808 197.980957,245.051453 
z"/>
<path fill="#F2F5F9" opacity="1.000000" stroke="none" 
	d="
M119.846420,440.114532 
	C107.639046,418.917419 107.574196,397.929169 121.273712,378.148682 
	C135.233246,357.992767 155.403625,350.083466 179.344193,355.179169 
	C202.457123,360.098724 217.025253,375.118347 222.408936,398.133270 
	C228.484497,424.105865 214.921997,450.274292 190.335449,461.490997 
	C166.698776,472.274323 137.989227,464.759033 122.342087,443.687164 
	C121.548302,442.618195 120.796593,441.518036 119.846420,440.114532 
M149.755356,457.951294 
	C172.860626,465.834808 197.065506,457.946777 210.019058,438.312195 
	C222.746094,419.020966 220.996353,393.277405 205.800385,376.244537 
	C191.488815,360.202972 169.438202,354.715881 149.346283,362.196472 
	C129.845703,369.456909 116.555908,388.472412 116.225922,409.586273 
	C115.899391,430.478516 128.648438,449.190582 149.755356,457.951294 
z"/>
<path fill="#F2F5F9" opacity="1.000000" stroke="none" 
	d="
M324.932922,448.972778 
	C309.496277,463.713196 291.376709,469.530273 270.414856,464.657928 
	C248.557983,459.577606 232.001923,441.332825 228.305115,418.951172 
	C224.661041,396.888794 234.895004,374.335815 254.012527,362.316315 
	C255.137939,361.608704 256.297028,360.954712 258.059204,360.008240 
	C291.751190,343.934784 329.944550,361.418243 338.494537,396.517212 
	C343.309723,416.284393 338.006104,433.697937 324.932922,448.972778 
M309.552673,365.832092 
	C290.663574,355.684570 271.959167,356.104553 254.451035,368.434265 
	C237.443985,380.411041 230.462082,397.561279 233.517441,418.093262 
	C236.981445,441.371338 256.223877,459.008240 279.119812,460.927490 
	C303.206390,462.946564 324.913055,448.713684 332.471100,425.945496 
	C339.952850,403.407196 331.015747,379.428131 309.552673,365.832092 
z"/>
<path fill="#F2F5F9" opacity="1.000000" stroke="none" 
	d="
M265.881378,335.941376 
	C255.506348,348.046143 242.713043,355.682159 226.617142,357.278748 
	C200.271469,359.892059 175.321167,343.384125 167.397491,318.063202 
	C159.420349,292.571411 170.735886,264.587769 194.175018,251.863632 
	C195.489716,251.149933 196.843216,250.507690 198.801544,249.533875 
	C200.210281,248.969635 201.001633,248.718796 201.781265,248.435654 
	C234.382462,236.596375 269.492981,256.228699 276.327698,290.209564 
	C279.700165,306.976776 275.507446,322.100586 265.881378,335.941376 
M214.351562,250.662720 
	C184.991425,254.835632 165.746017,281.684235 171.014908,311.120178 
	C176.007004,339.009644 204.905899,357.561584 233.155243,351.011810 
	C260.049744,344.776154 276.725616,319.370392 272.055695,291.746918 
	C267.657776,265.732147 242.733749,247.647491 214.351562,250.662720 
z"/>
<path fill="#2555A0" opacity="1.000000" stroke="none" 
	d="
M325.274567,449.026611 
	C338.006104,433.697937 343.309723,416.284393 338.494537,396.517212 
	C329.944550,361.418243 291.751190,343.934784 258.334045,359.793823 
	C258.192719,357.915771 258.395294,355.984619 258.902893,354.068298 
	C260.490387,353.925873 261.838409,353.971436 263.045807,353.581604 
	C289.100311,345.168701 314.677002,352.200165 330.690887,372.228180 
	C347.074371,392.718414 348.486328,419.159149 334.456390,442.674805 
	C334.115570,443.246002 333.813416,443.840240 333.736359,444.739410 
	C333.979492,445.055084 333.983063,444.996216 333.779816,444.735107 
	C333.193970,444.742523 332.811371,445.010986 332.428741,445.279480 
	C332.950348,445.513367 333.471954,445.747284 333.993591,445.981201 
	C332.244141,448.055573 330.494690,450.129944 328.640106,452.328979 
	C327.236511,450.821136 326.426361,449.950806 325.274567,449.026611 
z"/>
<path fill="#2656A0" opacity="1.000000" stroke="none" 
	d="
M266.183167,336.079529 
	C275.507446,322.100586 279.700165,306.976776 276.327698,290.209564 
	C269.492981,256.228699 234.382462,236.596375 201.781265,248.435654 
	C201.001633,248.718796 200.210281,248.969635 199.080505,249.297775 
	C197.536240,248.442688 196.335861,247.525360 195.458435,246.270172 
	C196.535294,245.609390 197.289215,245.286469 198.043137,244.963562 
	C198.043137,244.963562 198.042297,245.029587 198.011627,245.040527 
	C202.644012,243.987808 207.257568,242.553879 211.978439,241.922607 
	C236.467514,238.647964 256.513245,246.903824 270.526642,267.117218 
	C284.554016,287.350830 284.961487,309.002441 273.579865,330.842041 
	C273.121674,331.721222 272.730255,332.635223 272.666138,333.772888 
	C273.024506,334.012787 273.006195,333.966949 272.535889,333.935059 
	C272.040924,334.459900 272.016266,335.016602 271.991577,335.573303 
	C270.899353,336.718567 269.807159,337.863861 268.357666,339.004883 
	C268.000336,339.000610 267.984375,338.987762 267.984375,338.987762 
	C267.484558,338.064392 266.984741,337.141022 266.183167,336.079529 
z"/>
<path fill="#FEFEFF" opacity="1.000000" stroke="none" 
	d="
M197.793900,244.670883 
	C197.289215,245.286469 196.535294,245.609390 195.430023,245.888885 
	C195.900681,245.356369 196.722672,244.867294 197.793900,244.670883 
z"/>
<path fill="#FEFEFF" opacity="1.000000" stroke="none" 
	d="
M334.120605,445.744476 
	C333.471954,445.747284 332.950348,445.513367 332.428741,445.279480 
	C332.811371,445.010986 333.193970,444.742523 333.808441,444.743073 
	C334.109436,445.177338 334.178528,445.342560 334.120605,445.744476 
z"/>
<path fill="#FEFEFF" opacity="1.000000" stroke="none" 
	d="
M272.290283,335.384583 
	C272.016266,335.016602 272.040924,334.459900 272.561218,333.938568 
	C272.900848,334.381226 272.744904,334.788544 272.290283,335.384583 
z"/>
<path fill="#2656A0" opacity="1.000000" stroke="none" 
	d="
M268.006775,339.008850 
	C267.911285,339.046753 267.809326,339.076416 267.845886,339.046936 
	C267.984375,338.987762 268.000336,339.000610 268.006775,339.008850 
z"/>
<path fill="#1C4F9C" opacity="1.000000" stroke="none" 
	d="
M149.382599,457.827637 
	C128.648438,449.190582 115.899391,430.478516 116.225922,409.586273 
	C116.555908,388.472412 129.845703,369.456909 149.346283,362.196472 
	C169.438202,354.715881 191.488815,360.202972 205.800385,376.244537 
	C220.996353,393.277405 222.746094,419.020966 210.019058,438.312195 
	C197.065506,457.946777 172.860626,465.834808 149.382599,457.827637 
M178.215622,392.143524 
	C179.425034,393.899414 180.538467,395.733429 181.879883,397.381897 
	C182.682556,398.368286 183.782578,399.672577 184.852173,399.777039 
	C188.081192,400.092377 191.360672,399.890900 194.792740,399.890900 
	C194.451828,392.995361 191.676514,388.108673 186.736389,384.448242 
	C169.746201,371.859161 145.240280,381.156708 141.531189,401.869629 
	C139.515915,413.123718 140.845383,424.055908 150.085373,432.143646 
	C158.927963,439.883514 169.441040,440.372162 180.178711,437.048004 
	C189.311188,434.220734 194.598175,426.540985 194.474945,416.844147 
	C192.517365,416.844147 190.549911,416.844116 188.582458,416.844116 
	C186.635818,416.844116 184.689178,416.844147 182.937576,416.844147 
	C179.736130,426.924408 173.763870,430.472229 164.716049,428.147644 
	C157.912170,426.399567 153.906845,420.046753 153.336578,410.098724 
	C152.398361,393.732056 163.949707,384.969574 178.215622,392.143524 
z"/>
<path fill="#1C4E9C" opacity="1.000000" stroke="none" 
	d="
M309.874969,366.007507 
	C331.015747,379.428131 339.952850,403.407196 332.471100,425.945496 
	C324.913055,448.713684 303.206390,462.946564 279.119812,460.927490 
	C256.223877,459.008240 236.981445,441.371338 233.517441,418.093262 
	C230.462082,397.561279 237.443985,380.411041 254.451035,368.434265 
	C271.959167,356.104553 290.663574,355.684570 309.874969,366.007507 
M276.578369,425.526672 
	C276.578369,422.925781 276.578369,420.324890 276.578369,417.111481 
	C281.667419,417.111481 286.152649,417.425323 290.579132,417.048553 
	C301.013794,416.160461 307.558014,409.538940 307.955475,399.918335 
	C308.396271,389.249481 302.851776,381.669220 292.098145,380.523010 
	C283.106506,379.564606 273.931580,380.326324 264.635681,380.326324 
	C264.635681,399.446747 264.635681,418.490570 264.635681,437.680817 
	C268.661438,437.680817 272.387329,437.680817 276.578125,437.680817 
	C276.578125,433.767059 276.578125,430.136902 276.578369,425.526672 
z"/>
<path fill="#1D4F9C" opacity="1.000000" stroke="none" 
	d="
M214.784790,250.584335 
	C242.733749,247.647491 267.657776,265.732147 272.055695,291.746918 
	C276.725616,319.370392 260.049744,344.776154 233.155243,351.011810 
	C204.905899,357.561584 176.007004,339.009644 171.014908,311.120178 
	C165.746017,281.684235 184.991425,254.835632 214.784790,250.584335 
M246.929535,289.500641 
	C246.929535,283.411896 246.929535,277.323151 246.929535,271.271484 
	C242.533020,271.271484 238.917892,271.271484 234.642822,271.271484 
	C234.642822,278.860718 234.642822,286.237305 234.642822,293.453827 
	C225.563644,293.453827 217.157196,293.453827 208.216370,293.453827 
	C208.216370,285.866180 208.216370,278.630585 208.216370,271.437225 
	C203.949310,271.437225 200.242813,271.437225 196.535828,271.437225 
	C196.535828,290.770874 196.535828,309.702484 196.535828,328.808105 
	C200.539246,328.808105 204.266586,328.808105 208.548950,328.808105 
	C208.548950,320.605804 208.548950,312.704620 208.548950,304.758179 
	C217.527603,304.758179 225.944412,304.758179 234.887390,304.758179 
	C234.887390,312.964447 234.887390,320.869476 234.887390,328.766663 
	C239.150101,328.766663 242.872787,328.766663 246.929520,328.766663 
	C246.929520,315.776794 246.929520,303.138611 246.929535,289.500641 
z"/>
<path fill="#F8FAFC" opacity="1.000000" stroke="none" 
	d="
M177.901154,391.923462 
	C163.949707,384.969574 152.398361,393.732056 153.336578,410.098724 
	C153.906845,420.046753 157.912170,426.399567 164.716049,428.147644 
	C173.763870,430.472229 179.736130,426.924408 182.937576,416.844147 
	C184.689178,416.844147 186.635818,416.844116 188.582458,416.844116 
	C190.549911,416.844116 192.517365,416.844147 194.474945,416.844147 
	C194.598175,426.540985 189.311188,434.220734 180.178711,437.048004 
	C169.441040,440.372162 158.927963,439.883514 150.085373,432.143646 
	C140.845383,424.055908 139.515915,413.123718 141.531189,401.869629 
	C145.240280,381.156708 169.746201,371.859161 186.736389,384.448242 
	C191.676514,388.108673 194.451828,392.995361 194.792740,399.890900 
	C191.360672,399.890900 188.081192,400.092377 184.852173,399.777039 
	C183.782578,399.672577 182.682556,398.368286 181.879883,397.381897 
	C180.538467,395.733429 179.425034,393.899414 177.901154,391.923462 
z"/>
<path fill="#F5F7FB" opacity="1.000000" stroke="none" 
	d="
M276.578247,426.016693 
	C276.578125,430.136902 276.578125,433.767059 276.578125,437.680817 
	C272.387329,437.680817 268.661438,437.680817 264.635681,437.680817 
	C264.635681,418.490570 264.635681,399.446747 264.635681,380.326324 
	C273.931580,380.326324 283.106506,379.564606 292.098145,380.523010 
	C302.851776,381.669220 308.396271,389.249481 307.955475,399.918335 
	C307.558014,409.538940 301.013794,416.160461 290.579132,417.048553 
	C286.152649,417.425323 281.667419,417.111481 276.578369,417.111481 
	C276.578369,420.324890 276.578369,422.925781 276.578247,426.016693 
M295.001282,401.879333 
	C297.047852,391.467163 290.886169,387.993225 276.939209,390.523468 
	C276.939209,396.079285 276.939209,401.612152 276.939209,407.467926 
	C279.435974,407.467926 281.565552,407.424469 283.692749,407.476990 
	C288.130615,407.586487 292.407684,407.377289 295.001282,401.879333 
z"/>
<path fill="#FAFBFD" opacity="1.000000" stroke="none" 
	d="
M246.929535,290.000549 
	C246.929520,303.138611 246.929520,315.776794 246.929520,328.766663 
	C242.872787,328.766663 239.150101,328.766663 234.887390,328.766663 
	C234.887390,320.869476 234.887390,312.964447 234.887390,304.758179 
	C225.944412,304.758179 217.527603,304.758179 208.548950,304.758179 
	C208.548950,312.704620 208.548950,320.605804 208.548950,328.808105 
	C204.266586,328.808105 200.539246,328.808105 196.535828,328.808105 
	C196.535828,309.702484 196.535828,290.770874 196.535828,271.437225 
	C200.242813,271.437225 203.949310,271.437225 208.216370,271.437225 
	C208.216370,278.630585 208.216370,285.866180 208.216370,293.453827 
	C217.157196,293.453827 225.563644,293.453827 234.642822,293.453827 
	C234.642822,286.237305 234.642822,278.860718 234.642822,271.271484 
	C238.917892,271.271484 242.533020,271.271484 246.929535,271.271484 
	C246.929535,277.323151 246.929535,283.411896 246.929535,290.000549 
z"/>
<path fill="#1E509D" opacity="1.000000" stroke="none" 
	d="
M294.879761,402.283264 
	C292.407684,407.377289 288.130615,407.586487 283.692749,407.476990 
	C281.565552,407.424469 279.435974,407.467926 276.939209,407.467926 
	C276.939209,401.612152 276.939209,396.079285 276.939209,390.523468 
	C290.886169,387.993225 297.047852,391.467163 294.879761,402.283264 
z"/>
</svg>